# xmcd CD database file
#
# Track frame offsets:
#	150
#	17637
#	75160
#	103060
#	130782
#	166137
#	198732
#	225947
#	282370
#
# Disc length: 4128 seconds
#
# Revision: 0
# Processed by: cddbd v1.4PL0 Copyright (c) Steve Scherf et al.
# Submitted via: CDex 1.50
#
DISCID=66101e09
DTITLE=Scott Kungha Drengsen - Basscapes
DYEAR=1900
DGENRE=New Age
TTITLE0=Khumbum
TTITLE1=Once There Was No-one
TTITLE2=A Conversation
TTITLE3=Goofy Wisdom
TTITLE4=Love That Brought Us
TTITLE5=Out of Ancient Shadow
TTITLE6=Heavens Castles
TTITLE7=Crystal Dimension
TTITLE8=Jaimilas Camel Caravan
EXTD=
EXTT0=
EXTT1=
EXTT2=
EXTT3=
EXTT4=
EXTT5=
EXTT6=
EXTT7=
EXTT8=
PLAYORDER=
